<svg xmlns="http://www.w3.org/2000/svg" version="1.1" xmlns:xlink="http://www.w3.org/1999/xlink" xmlns:svgjs="http://svgjs.com/svgjs" width="1165" height="400" preserveAspectRatio="none" viewBox="0 0 1165 400"><g mask="url(&quot;#SvgjsMask1014&quot;)" fill="none"><path d="M603.66 260.83 a126.82 126.82 0 1 0 253.64 0 a126.82 126.82 0 1 0 -253.64 0z" fill="rgba(207, 153, 143, 0.22)" class="triangle-float1"></path><path d="M120.96 217.06 a130.24 130.24 0 1 0 260.48 0 a130.24 130.24 0 1 0 -260.48 0z" fill="rgba(207, 153, 143, 0.22)" class="triangle-float2"></path><path d="M1074.63 379.23 a72.91 72.91 0 1 0 145.82 0 a72.91 72.91 0 1 0 -145.82 0z" fill="rgba(207, 153, 143, 0.22)" class="triangle-float2"></path><path d="M10.52 338.63 a69.92 69.92 0 1 0 139.84 0 a69.92 69.92 0 1 0 -139.84 0z" fill="rgba(207, 153, 143, 0.22)" class="triangle-float1"></path></g><defs><mask id="SvgjsMask1014"><rect width="1165" height="400" fill="#ffffff"></rect></mask></defs></svg>